<svg width="20" height="22" viewBox="0 0 20 22" fill="none" xmlns="http://www.w3.org/2000/svg">
<g clip-path="url(#clip0)">
<path d="M17.9266 3.51482H16.671V2.49676C16.671 2.2036 16.4366 1.96375 16.1501 1.96375C15.8635 1.96375 15.6291 2.2036 15.6291 2.49676V3.51482H10.5236V2.49676C10.5236 2.2036 10.2892 1.96375 10.0026 1.96375C9.71608 1.96375 9.48165 2.2036 9.48165 2.49676V3.51482H4.32405V2.49676C4.32405 2.2036 4.08961 1.96375 3.80308 1.96375C3.51654 1.96375 3.28211 2.2036 3.28211 2.49676V3.51482H2.07867C0.932536 3.51482 0 4.50089 0 5.67353V18.0661C0 19.2441 0.927326 20.1982 2.07867 20.1982H17.9214C19.0727 20.1982 20 19.2441 20 18.0714V5.67353C20.0052 4.50089 19.0727 3.51482 17.9266 3.51482ZM18.9633 18.0661C18.9633 18.6524 18.5048 19.1268 17.9318 19.1321H17.9266H2.07867C1.5056 19.1321 1.04194 18.6578 1.04194 18.0714V18.0661V5.67353C1.04194 5.08188 1.5056 4.58085 2.07867 4.58085H3.28211V5.35372C3.28211 5.64687 3.51654 5.88673 3.80308 5.88673C4.08961 5.88673 4.32405 5.64687 4.32405 5.35372V4.58085H9.48165V5.35372C9.48165 5.64687 9.71608 5.88673 10.0026 5.88673C10.2892 5.88673 10.5236 5.64687 10.5236 5.35372V4.58085H15.6291V5.35372C15.6291 5.64687 15.8635 5.88673 16.1501 5.88673C16.4366 5.88673 16.671 5.64687 16.671 5.35372V4.58085H17.9266C18.5048 4.58085 18.9633 5.08721 18.9633 5.67353V18.0661Z" fill="#2B4758"/>
<path d="M8.63237 8.04541H7.72068C7.43414 8.04541 7.19971 8.28527 7.19971 8.57842C7.19971 8.87158 7.43414 9.11144 7.72068 9.11144H8.63237C8.9189 9.11144 9.15334 8.87158 9.15334 8.57842C9.15334 8.28527 8.9189 8.04541 8.63237 8.04541Z" fill="#2B4758"/>
<path d="M12.2583 8.04541H11.3466C11.0601 8.04541 10.8257 8.28527 10.8257 8.57842C10.8257 8.87158 11.0601 9.11144 11.3466 9.11144H12.2583C12.5449 9.11144 12.7793 8.87158 12.7793 8.57842C12.7793 8.28527 12.5501 8.04541 12.2583 8.04541Z" fill="#2B4758"/>
<path d="M15.9156 8.04541H15.0039C14.7173 8.04541 14.4829 8.28527 14.4829 8.57842C14.4829 8.87158 14.7173 9.11144 15.0039 9.11144H15.9156C16.2021 9.11144 16.4365 8.87158 16.4365 8.57842C16.4365 8.28527 16.2021 8.04541 15.9156 8.04541Z" fill="#2B4758"/>
<path d="M8.63237 11.7232H7.72068C7.43414 11.7232 7.19971 11.9631 7.19971 12.2562C7.19971 12.5494 7.43414 12.7892 7.72068 12.7892H8.63237C8.9189 12.7892 9.15334 12.5494 9.15334 12.2562C9.15334 11.9631 8.9189 11.7232 8.63237 11.7232Z" fill="#2B4758"/>
<path d="M4.98036 11.7232H4.06345C3.77692 11.7232 3.54248 11.9631 3.54248 12.2562C3.54248 12.5494 3.77692 12.7892 4.06345 12.7892H4.97515C5.26168 12.7892 5.49611 12.5494 5.49611 12.2562C5.49611 11.9631 5.26689 11.7232 4.98036 11.7232Z" fill="#2B4758"/>
<path d="M12.2583 11.7232H11.3466C11.0601 11.7232 10.8257 11.9631 10.8257 12.2562C10.8257 12.5494 11.0601 12.7892 11.3466 12.7892H12.2583C12.5449 12.7892 12.7793 12.5494 12.7793 12.2562C12.7793 11.9631 12.5501 11.7232 12.2583 11.7232Z" fill="#2B4758"/>
<path d="M15.9156 11.7232H15.0039C14.7173 11.7232 14.4829 11.9631 14.4829 12.2562C14.4829 12.5494 14.7173 12.7892 15.0039 12.7892H15.9156C16.2021 12.7892 16.4365 12.5494 16.4365 12.2562C16.4365 11.9631 16.2021 11.7232 15.9156 11.7232Z" fill="#2B4758"/>
<path d="M8.63237 15.3477H7.72068C7.43414 15.3477 7.19971 15.5876 7.19971 15.8807C7.19971 16.1739 7.43414 16.4137 7.72068 16.4137H8.63237C8.9189 16.4137 9.15334 16.1739 9.15334 15.8807C9.15334 15.5876 8.9189 15.3477 8.63237 15.3477Z" fill="#2B4758"/>
<path d="M4.98036 15.3477H4.06345C3.77692 15.3477 3.54248 15.5876 3.54248 15.8807C3.54248 16.1739 3.77692 16.4137 4.06345 16.4137H4.97515C5.26168 16.4137 5.49611 16.1739 5.49611 15.8807C5.49611 15.5876 5.26689 15.3477 4.98036 15.3477Z" fill="#2B4758"/>
<path d="M12.2583 15.3477H11.3466C11.0601 15.3477 10.8257 15.5876 10.8257 15.8807C10.8257 16.1739 11.0601 16.4137 11.3466 16.4137H12.2583C12.5449 16.4137 12.7793 16.1739 12.7793 15.8807C12.7793 15.5876 12.5501 15.3477 12.2583 15.3477Z" fill="#2B4758"/>
</g>
<defs>
<clipPath id="clip0">
<rect width="20" height="20.4624" fill="white" transform="translate(0 0.849731)"/>
</clipPath>
</defs>
</svg>
