<svg width="24" height="21" viewBox="0 0 24 21" fill="none" xmlns="http://www.w3.org/2000/svg">
<path d="M12 20.971C11.6583 20.971 11.3289 20.8495 11.0722 20.6286C10.1027 19.796 9.16791 19.0135 8.3432 18.3233L8.33899 18.3197C5.92108 16.296 3.83313 14.5484 2.38037 12.8268C0.756409 10.9022 0 9.07741 0 7.08392C0 5.14709 0.676208 3.36024 1.90393 2.05229C3.1463 0.728876 4.85101 0 6.70459 0C8.08997 0 9.3587 0.430168 10.4755 1.27845C11.0391 1.70664 11.5499 2.23069 12 2.84195C12.4503 2.23069 12.9609 1.70664 13.5247 1.27845C14.6415 0.430168 15.9102 0 17.2956 0C19.149 0 20.8539 0.728876 22.0963 2.05229C23.324 3.36024 24 5.14709 24 7.08392C24 9.07741 23.2438 10.9022 21.6198 12.8266C20.1671 14.5484 18.0793 16.2958 15.6617 18.3194C14.8356 19.0107 13.8994 19.7944 12.9276 20.629C12.6711 20.8495 12.3415 20.971 12 20.971ZM6.70459 1.38078C5.24835 1.38078 3.91058 1.95158 2.93738 2.98816C1.94971 4.04038 1.4057 5.49489 1.4057 7.08392C1.4057 8.76053 2.04016 10.26 3.46271 11.9458C4.83765 13.5753 6.88275 15.287 9.25067 17.2689L9.25507 17.2725C10.0829 17.9654 11.0213 18.751 11.998 19.5897C12.9805 18.7493 13.9204 17.9626 14.7499 17.2686C17.1176 15.2866 19.1625 13.5753 20.5375 11.9458C21.9598 10.26 22.5943 8.76053 22.5943 7.08392C22.5943 5.49489 22.0503 4.04038 21.0626 2.98816C20.0896 1.95158 18.7516 1.38078 17.2956 1.38078C16.2288 1.38078 15.2494 1.71384 14.3846 2.3706C13.6139 2.95615 13.077 3.69635 12.7623 4.21428C12.6004 4.48062 12.3155 4.63959 12 4.63959C11.6845 4.63959 11.3996 4.48062 11.2377 4.21428C10.9232 3.69635 10.3863 2.95615 9.61542 2.3706C8.75061 1.71384 7.77118 1.38078 6.70459 1.38078Z" fill="black"/>
</svg>
