<svg width="24" height="22" viewBox="0 0 24 22" fill="none" xmlns="http://www.w3.org/2000/svg">
<path d="M20.5066 21.132H22.2072L21.0047 19.9295C20.3563 19.2812 19.9514 18.4378 19.8426 17.523C21.5345 16.4127 22.7717 14.9519 23.434 13.2767C24.0958 11.6027 24.179 9.7599 23.6745 7.94753C23.0691 5.77285 21.6494 3.79071 19.6768 2.36618C17.5333 0.818232 14.8648 0 11.9599 0C8.30043 0 5.2159 1.05139 3.03991 3.04043C1.07961 4.83238 0 7.24946 0 9.8465C0 11.1082 0.256918 12.3359 0.763571 13.4954C1.28788 14.6953 2.05563 15.7637 3.0455 16.6708C5.2244 18.6677 8.307 19.7232 11.9599 19.7232C13.316 19.7232 14.7311 19.5422 15.9944 19.21C17.1903 20.4368 18.8107 21.132 20.5066 21.132ZM11.9599 1.4088C17.7848 1.4088 21.359 4.88258 22.3173 8.32532C23.2228 11.5787 21.8879 14.6529 18.7463 16.5487L18.3953 16.7606L18.4061 17.1704C18.4275 17.9816 18.6209 18.7629 18.967 19.4692C18.1241 19.184 17.3593 18.667 16.7603 17.9594L16.4625 17.6075L16.0209 17.7396C14.7814 18.1103 13.3392 18.3144 11.9599 18.3144C4.71057 18.3144 1.4088 13.9249 1.4088 9.8465C1.4088 7.64989 2.32565 5.60206 3.99048 4.08027C5.90237 2.3326 8.65817 1.4088 11.9599 1.4088Z" fill="black"/>
</svg>
