<svg width="20" height="20" viewBox="0 0 20 20" fill="none" xmlns="http://www.w3.org/2000/svg">
<g clip-path="url(#clip0)">
<path fill-rule="evenodd" clip-rule="evenodd" d="M9.99992 8.33333C9.07992 8.33333 8.33325 7.58667 8.33325 6.66667C8.33325 5.74667 9.07992 5 9.99992 5C10.9199 5 11.6666 5.74667 11.6666 6.66667C11.6666 7.58667 10.9199 8.33333 9.99992 8.33333ZM9.99992 4.16667C8.61908 4.16667 7.49992 5.28583 7.49992 6.66667C7.49992 8.0475 8.61908 9.16667 9.99992 9.16667C11.3808 9.16667 12.4999 8.0475 12.4999 6.66667C12.4999 5.28583 11.3808 4.16667 9.99992 4.16667ZM4.16659 6.335C4.16659 3.40417 6.89242 0.833333 9.99992 0.833333C13.1074 0.833333 15.8333 3.40417 15.8333 6.335C15.8333 9.21417 13.6974 12.6208 9.99992 18.4408C6.25909 12.5467 4.16659 9.21417 4.16659 6.335ZM9.99992 0C6.50159 0 3.33325 2.83583 3.33325 6.335C3.33325 9.83333 6.22408 14.01 9.99992 20C13.7758 14.01 16.6666 9.83333 16.6666 6.335C16.6666 2.83583 13.4991 0 9.99992 0" fill="white"/>
</g>
<defs>
<clipPath id="clip0">
<rect width="20" height="20" fill="white"/>
</clipPath>
</defs>
</svg>
