<svg width="20" height="20" viewBox="0 0 20 20" fill="none" xmlns="http://www.w3.org/2000/svg">
<g clip-path="url(#clip0)">
<path fill-rule="evenodd" clip-rule="evenodd" d="M6.88322 1.07417L5.57989 1.7175C0.752386 4.23417 7.91155 19.1708 13.3382 19.1708C13.7216 19.1708 14.0916 19.0925 14.4357 18.9342L15.7207 18.305L13.3057 13.6433L12.0224 14.2717C11.8716 14.3442 11.7024 14.3833 11.5249 14.3833C9.39072 14.3833 5.82405 7.54667 7.99072 6.38667L9.27905 5.75083L6.88322 1.07417ZM13.3382 20C8.60489 20 3.15405 10.7383 3.15405 5.14C3.15405 3.12417 3.84822 1.685 5.20155 0.98L7.18655 0L10.4007 6.1225L8.36989 7.12333C7.17072 7.76667 10.3774 14.1433 11.6666 13.5233L13.6657 12.5408L16.8457 18.6742C16.8457 18.6742 14.8791 19.6425 14.7824 19.6867C14.3266 19.8958 13.8416 20 13.3382 20Z" fill="white"/>
</g>
<defs>
<clipPath id="clip0">
<rect width="20" height="20" fill="white"/>
</clipPath>
</defs>
</svg>
