<svg viewBox="0 0 320 298" fill="none" xmlns="http://www.w3.org/2000/svg" preserveAspectRatio="none">
<mask id="mask0" style="mask-type:alpha" maskUnits="userSpaceOnUse" x="0" y="0" width="320" height="298">
<rect width="320" height="298" fill="#E9E9E9"/>
</mask>
<g mask="url(#mask0)">
<path d="M160 27.5945C148.91 22.7329 136.698 19.9905 123.739 19.9905C136.698 19.9905 148.91 17.2481 160 12.3865C171.091 17.2481 183.302 19.9905 196.262 19.9905C183.302 19.9905 170.966 22.7329 160 27.5945Z" fill="#F2B05C"/>
<path d="M106.667 19.9903H0.000488281V-69.6376H106.667C106.667 -53.3076 111.029 -37.9749 118.63 -24.8859C111.029 -11.6724 106.667 3.66037 106.667 19.9903Z" fill="#B1D2DE"/>
<path d="M123.739 19.9904H106.667C106.667 3.6604 111.028 -11.6723 118.63 -24.7612C122.617 -18.0298 127.352 -11.797 132.835 -6.18745C140.561 1.54124 149.782 7.89871 159.876 12.3863C148.91 17.2479 136.574 19.9904 123.739 19.9904Z" fill="#2A4759"/>
<path d="M319.875 19.9899H213.208C213.208 3.65994 208.847 -11.6728 201.246 -24.7617C208.847 -37.9753 213.208 -53.1833 213.208 -69.5133H319.875V19.9899Z" fill="#B1D2DE"/>
<path d="M213.209 19.9904H196.137C183.302 19.9904 170.966 17.2479 159.875 12.3863C177.321 4.65765 191.776 -8.43126 201.246 -24.7612C208.847 -11.6723 213.209 3.6604 213.209 19.9904Z" fill="#F3DCCA"/>
<path d="M160 12.262C149.781 7.77442 140.685 1.41696 132.959 -6.31173C127.476 -11.7966 122.616 -18.0294 118.753 -24.8855C128.224 -41.2155 142.679 -54.3044 160.124 -62.0331C170.342 -57.5455 179.439 -51.188 187.165 -43.4593C192.648 -37.9744 197.507 -31.7416 201.37 -24.8855C191.775 -8.43089 177.32 4.65802 160 12.262Z" fill="#D8762D"/>
<path d="M106.667 109.494H0V19.9904H106.667C106.667 36.3203 111.028 51.6531 118.629 64.742C111.028 77.9555 106.667 93.1636 106.667 109.494Z" fill="#E4F0F2"/>
<path d="M118.63 64.742C111.028 51.5284 106.667 36.3203 106.667 19.9904H123.739C136.698 19.9904 148.91 22.7328 160 27.5944C142.555 35.3231 128.1 48.412 118.63 64.742Z" fill="#F3DCCA"/>
<path d="M160 101.89C149.781 97.4019 140.685 91.0444 132.959 83.3158C127.476 77.8309 122.616 71.5981 118.753 64.742C128.224 48.412 142.679 35.3231 160.124 27.5944C170.342 32.082 179.439 38.4395 187.165 46.1682C192.648 51.653 197.507 57.8859 201.37 64.742C191.775 81.0719 177.32 94.1609 160 101.89Z" fill="#D8762D"/>
<path d="M201.246 64.742C197.258 57.8859 192.523 51.6531 187.04 46.1682C179.314 38.4395 170.093 32.082 160 27.5944C171.09 22.7328 183.302 19.9904 196.261 19.9904H213.333C213.209 36.3203 208.847 51.5284 201.246 64.742Z" fill="#2A4759"/>
<path d="M319.875 109.494H213.208C213.208 93.1636 208.847 77.8309 201.246 64.742C208.847 51.5284 213.208 36.3203 213.208 19.9904H319.875V109.494Z" fill="#E4F0F2"/>
<path d="M213.209 109.493H196.137C183.302 109.493 170.966 106.751 159.875 101.889C177.321 94.1605 191.776 81.0715 201.246 64.7416C208.847 77.9551 213.209 93.1632 213.209 109.493Z" fill="#2A4759"/>
<path d="M123.739 109.493H106.667C106.667 93.1632 111.028 77.8305 118.63 64.7416C122.493 71.5977 127.352 77.8305 132.835 83.3154C140.561 91.044 149.782 97.4015 159.876 101.889C148.91 106.751 136.574 109.493 123.739 109.493Z" fill="#F3DCCA"/>
<path d="M160 117.098C159.876 117.098 159.876 117.098 160 117.098C148.91 112.236 136.698 109.494 123.739 109.494C136.698 109.494 148.91 106.751 160 101.89C171.091 106.751 183.302 109.494 196.262 109.494C183.302 109.494 171.091 112.236 160 117.098Z" fill="#F2B05C"/>
<path d="M118.63 154.245C111.028 141.032 106.667 125.824 106.667 109.494H123.739C136.698 109.494 148.91 112.236 160 117.098C142.555 124.826 128.1 137.915 118.63 154.245Z" fill="#2A4759"/>
<path d="M106.667 199.122H0V109.494H106.667C106.667 125.824 111.028 141.156 118.629 154.245C111.028 167.459 106.667 182.792 106.667 199.122Z" fill="#B1D2DE"/>
<path d="M159.875 206.725C148.785 201.864 136.573 199.121 123.614 199.121C136.573 199.121 148.785 196.379 159.875 191.517C170.966 196.379 183.178 199.121 196.137 199.121C183.302 199.121 170.966 201.864 159.875 206.725Z" fill="#F2B05C"/>
<path d="M123.739 199.122H106.667C106.667 182.792 111.028 167.459 118.63 154.37C122.493 161.226 127.352 167.459 132.835 172.944C140.561 180.673 149.782 187.03 159.876 191.518C148.91 196.379 136.574 199.122 123.739 199.122Z" fill="#2A4759"/>
<path d="M213.209 199.122H196.137C183.302 199.122 170.966 196.379 159.875 191.518C177.321 183.789 191.776 170.7 201.246 154.37C208.847 167.459 213.209 182.792 213.209 199.122Z" fill="#F3DCCA"/>
<path d="M201.246 154.245C197.258 147.389 192.523 141.156 187.04 135.671C179.314 127.943 170.093 121.585 160 117.098C171.09 112.236 183.302 109.494 196.261 109.494H213.333C213.209 125.824 208.847 141.156 201.246 154.245Z" fill="#F3DCCA"/>
<path d="M319.875 199.121H213.208C213.208 182.791 208.847 167.458 201.246 154.37C208.847 141.156 213.208 125.948 213.208 109.618H319.875V199.121Z" fill="#B1D2DE"/>
<path d="M159.876 191.393C149.658 186.905 140.561 180.548 132.835 172.819C127.352 167.334 122.493 161.101 118.63 154.245C128.1 137.915 142.555 124.826 160 117.098C170.218 121.585 179.315 127.943 187.041 135.671C192.524 141.156 197.384 147.389 201.246 154.245C191.776 170.7 177.321 183.789 159.876 191.393Z" fill="#D8762D"/>
<path d="M118.63 243.873C111.028 230.66 106.667 215.452 106.667 199.122H123.739C136.698 199.122 148.91 201.864 160 206.726C142.555 214.454 128.1 227.543 118.63 243.873Z" fill="#F3DCCA"/>
<path d="M106.667 288.625H0V199.122H106.667C106.667 215.452 111.028 230.784 118.629 243.873C111.028 257.087 106.667 272.295 106.667 288.625Z" fill="#E4F0F2"/>
<path d="M159.875 296.228C148.785 291.367 136.573 288.624 123.614 288.624C136.573 288.624 148.785 285.882 159.875 281.021C170.966 285.882 183.178 288.624 196.137 288.624C183.302 288.624 170.966 291.367 159.875 296.228Z" fill="#F2B05C"/>
<path d="M123.739 288.625H106.667C106.667 272.295 111.028 256.962 118.63 243.873C122.617 250.729 127.352 256.962 132.835 262.447C140.561 270.176 149.782 276.533 159.876 281.021C148.91 285.882 136.574 288.625 123.739 288.625Z" fill="#F3DCCA"/>
<path d="M213.209 288.625H196.137C183.302 288.625 170.966 285.882 159.875 281.021C177.321 273.292 191.776 260.203 201.246 243.873C208.847 257.087 213.209 272.295 213.209 288.625Z" fill="#2A4759"/>
<path d="M201.246 243.873C197.258 237.017 192.523 230.784 187.04 225.299C179.314 217.571 170.093 211.213 160 206.726C171.09 201.864 183.302 199.122 196.261 199.122H213.333C213.209 215.452 208.847 230.66 201.246 243.873Z" fill="#2A4759"/>
<path d="M319.875 288.625H213.208C213.208 272.295 208.847 256.962 201.246 243.873C208.847 230.66 213.208 215.452 213.208 199.122H319.875V288.625Z" fill="#E4F0F2"/>
<path d="M159.876 281.021C149.658 276.533 140.561 270.176 132.835 262.447C127.352 256.962 122.493 250.729 118.63 243.873C128.1 227.543 142.555 214.454 160 206.726C170.218 211.213 179.315 217.571 187.041 225.299C192.524 230.784 197.384 237.017 201.246 243.873C191.776 260.203 177.321 273.292 159.876 281.021Z" fill="#D8762D"/>
<path d="M106.667 378.252H0V288.624H106.667C106.667 304.954 111.028 320.287 118.629 333.376C111.028 346.59 106.667 361.922 106.667 378.252Z" fill="#B1D2DE"/>
<path d="M118.63 333.501C111.028 320.287 106.667 305.079 106.667 288.749H123.739C136.698 288.749 148.91 291.492 160 296.353C142.555 303.957 128.1 317.046 118.63 333.501Z" fill="#2A4759"/>
<path d="M159.876 370.648C149.658 366.161 140.561 359.803 132.835 352.074C127.352 346.59 122.493 340.357 118.63 333.501C128.1 317.171 142.555 304.082 160 296.353C170.218 300.841 179.315 307.198 187.041 314.927C192.524 320.412 197.384 326.645 201.246 333.501C191.776 349.831 177.321 362.92 159.876 370.648Z" fill="#D8762D"/>
<path d="M319.875 378.252H213.208C213.208 361.922 208.847 346.59 201.246 333.501C208.847 320.287 213.208 305.079 213.208 288.749H319.875V378.252Z" fill="#B1D2DE"/>
<path d="M201.246 333.501C197.258 326.645 192.523 320.412 187.04 314.927C179.314 307.198 170.093 300.841 160 296.353C171.09 291.492 183.302 288.749 196.261 288.749H213.333C213.209 304.954 208.847 320.287 201.246 333.501Z" fill="#F3DCCA"/>
<path d="M53.3337 27.5945C42.2434 22.7329 30.0315 19.9905 17.072 19.9905C30.0315 19.9905 42.2434 17.2481 53.3337 12.3865C64.4241 17.2481 76.6359 19.9905 89.5954 19.9905C76.6359 19.9905 64.4241 22.7329 53.3337 27.5945Z" fill="#D8762D"/>
<path d="M17.0717 19.9904H0C0 3.6604 4.36137 -11.6723 11.9626 -24.7612C15.9502 -18.0298 20.6854 -11.797 26.1682 -6.18745C33.8941 1.54124 43.1153 7.89871 53.2087 12.3863C42.243 17.2479 30.0312 19.9904 17.0717 19.9904Z" fill="#2A4759"/>
<path d="M106.667 19.9904H89.595C76.7601 19.9904 64.4236 17.2479 53.3333 12.3863C70.7787 4.65765 85.2336 -8.43126 94.704 -24.7612C102.305 -11.6723 106.667 3.6604 106.667 19.9904Z" fill="#F3DCCA"/>
<path d="M53.3333 12.262C43.1152 7.77442 34.0186 1.41696 26.2928 -6.31173C20.8099 -11.7966 15.9501 -18.0294 12.0872 -24.8855C21.5576 -41.2155 36.0124 -54.3044 53.4579 -62.0331C63.676 -57.5455 72.7725 -51.188 80.4984 -43.4593C85.9813 -37.9744 90.8411 -31.7416 94.704 -24.8855C85.2336 -8.43089 70.6541 4.65802 53.3333 12.262Z" fill="#F2B05C"/>
<path d="M11.9626 64.742C4.36137 51.5284 0 36.3203 0 19.9904H17.0717C30.0312 19.9904 42.243 22.7328 53.3333 27.5944C35.8879 35.3231 21.433 48.412 11.9626 64.742Z" fill="#F3DCCA"/>
<path d="M53.3333 101.89C43.1152 97.4019 34.0186 91.0444 26.2928 83.3158C20.8099 77.8309 15.9501 71.5981 12.0872 64.742C21.433 48.412 35.8878 35.3231 53.3333 27.5944C63.5513 32.082 72.6479 38.4395 80.3738 46.1682C85.8566 51.653 90.7165 57.8859 94.5794 64.742C85.2336 81.0719 70.7788 94.1609 53.3333 101.89Z" fill="#F2B05C"/>
<path d="M94.704 64.742C90.7165 57.8859 85.9812 51.6531 80.4984 46.1682C72.6479 38.4395 63.4267 32.082 53.3333 27.5944C64.4236 22.7328 76.6354 19.9904 89.595 19.9904H106.667C106.667 36.3203 102.305 51.5284 94.704 64.742Z" fill="#2A4759"/>
<path d="M106.667 109.493H89.595C76.7601 109.493 64.4236 106.751 53.3333 101.889C70.7787 94.1605 85.2336 81.0715 94.704 64.7416C102.305 77.9551 106.667 93.1632 106.667 109.493Z" fill="#2A4759"/>
<path d="M17.0717 109.493H0C0 93.1632 4.36137 77.8305 11.9626 64.7416C15.8256 71.5977 20.6854 77.8305 26.1682 83.3154C33.8941 91.044 43.1153 97.4015 53.2087 101.889C42.243 106.751 30.0312 109.493 17.0717 109.493Z" fill="#F3DCCA"/>
<path d="M53.3337 117.098C42.2434 112.236 30.0315 109.494 17.072 109.494C30.0315 109.494 42.2434 106.751 53.3337 101.89C64.4241 106.751 76.6359 109.494 89.5954 109.494C76.6359 109.494 64.4241 112.236 53.3337 117.098Z" fill="#D8762D"/>
<path d="M11.9626 154.245C4.36137 141.156 0 125.824 0 109.494H17.0717C30.0312 109.494 42.243 112.236 53.3333 117.098C35.8879 124.826 21.433 137.915 11.9626 154.245Z" fill="#2A4759"/>
<path d="M53.3337 206.725C42.2434 201.864 30.0315 199.121 17.072 199.121C30.0315 199.121 42.2434 196.379 53.3337 191.517C64.4241 196.379 76.6359 199.121 89.5954 199.121C76.6359 199.121 64.4241 201.864 53.3337 206.725Z" fill="#D8762D"/>
<path d="M17.0717 199.122H0C0 182.792 4.36137 167.459 11.9626 154.37C15.8256 161.226 20.6854 167.459 26.1682 172.944C33.8941 180.673 43.1153 187.03 53.2087 191.518C42.243 196.379 30.0312 199.122 17.0717 199.122Z" fill="#2A4759"/>
<path d="M106.667 199.122H89.595C76.7601 199.122 64.4236 196.379 53.3333 191.518C70.7787 183.789 85.2336 170.7 94.704 154.37C102.305 167.459 106.667 182.792 106.667 199.122Z" fill="#F3DCCA"/>
<path d="M94.7041 154.245C90.7166 147.389 85.9814 141.156 80.4985 135.671C72.7726 127.943 63.5515 121.585 53.458 117.098C64.5484 112.236 76.7602 109.494 89.7197 109.494H106.791C106.667 125.824 102.305 141.156 94.7041 154.245Z" fill="#F3DCCA"/>
<path d="M53.3333 191.393C43.1152 186.905 34.0186 180.548 26.2928 172.819C20.8099 167.334 15.9501 161.101 12.0872 154.245C21.5576 137.915 36.0124 124.826 53.4579 117.098C63.676 121.585 72.7725 127.943 80.4984 135.671C85.9813 141.156 90.8411 147.389 94.704 154.245C85.2336 170.7 70.7788 183.789 53.3333 191.393Z" fill="#F2B05C"/>
<path d="M11.9626 243.873C4.36137 230.66 0 215.452 0 199.122H17.0717C30.0312 199.122 42.243 201.864 53.3333 206.726C35.8879 214.454 21.433 227.543 11.9626 243.873Z" fill="#F3DCCA"/>
<path d="M53.3337 296.228C42.2434 291.367 30.0315 288.624 17.072 288.624C30.0315 288.624 42.2434 285.882 53.3337 281.021C64.4241 285.882 76.6359 288.624 89.5954 288.624C76.6359 288.624 64.4241 291.367 53.3337 296.228Z" fill="#D8762D"/>
<path d="M17.0717 288.625H0C0 272.295 4.36137 256.962 11.9626 243.873C15.9502 250.729 20.6854 256.962 26.1682 262.447C33.8941 270.176 43.1153 276.533 53.2087 281.021C42.243 285.882 30.0312 288.625 17.0717 288.625Z" fill="#F3DCCA"/>
<path d="M106.667 288.625H89.595C76.7601 288.625 64.4236 285.882 53.3333 281.021C70.7787 273.292 85.2336 260.203 94.704 243.873C102.305 257.087 106.667 272.295 106.667 288.625Z" fill="#2A4759"/>
<path d="M94.7041 243.873C90.7166 237.017 85.9814 230.784 80.4985 225.299C72.7726 217.571 63.5515 211.213 53.458 206.726C64.5484 201.864 76.7602 199.122 89.7197 199.122H106.791C106.667 215.452 102.305 230.66 94.7041 243.873Z" fill="#2A4759"/>
<path d="M53.3333 281.021C43.1152 276.533 34.0186 270.176 26.2928 262.447C20.8099 256.962 15.9501 250.729 12.0872 243.873C21.5576 227.543 36.0124 214.454 53.4579 206.726C63.676 211.213 72.7725 217.571 80.4984 225.299C85.9813 230.784 90.7165 237.017 94.704 243.873C85.2336 260.203 70.6541 273.292 53.3333 281.021Z" fill="#F2B05C"/>
<path d="M11.9626 333.501C4.36137 320.287 0 304.954 0 288.624H17.0717C30.0312 288.624 42.243 291.367 53.3333 296.228C35.8879 303.957 21.433 317.046 11.9626 333.501Z" fill="#2A4759"/>
<path d="M53.3333 370.648C43.1152 366.161 34.0186 359.803 26.2928 352.074C20.8099 346.59 15.9501 340.357 12.0872 333.501C21.5576 317.171 36.0124 304.082 53.4579 296.353C63.676 300.841 72.7725 307.198 80.4984 314.927C85.9813 320.412 90.8411 326.645 94.704 333.501C85.2336 349.831 70.7788 362.92 53.3333 370.648Z" fill="#F2B05C"/>
<path d="M94.7041 333.501C90.7166 326.645 85.9814 320.412 80.4985 314.927C72.7726 307.198 63.5515 300.841 53.458 296.353C64.5484 291.492 76.7602 288.749 89.7197 288.749H106.791C106.667 304.954 102.305 320.287 94.7041 333.501Z" fill="#F3DCCA"/>
<path d="M266.542 27.5945C255.452 22.7329 243.24 19.9905 230.281 19.9905C243.24 19.9905 255.452 17.2481 266.542 12.3865C277.633 17.2481 289.845 19.9905 302.804 19.9905C289.969 19.9905 277.633 22.7329 266.542 27.5945Z" fill="#D8762D"/>
<path d="M230.405 19.9904H213.333C213.333 3.6604 217.694 -11.6723 225.296 -24.7612C229.283 -18.0298 234.018 -11.797 239.501 -6.18745C247.227 1.54124 256.448 7.89871 266.542 12.3863C255.451 17.2479 243.24 19.9904 230.405 19.9904Z" fill="#2A4759"/>
<path d="M319.875 19.9904H302.804C289.969 19.9904 277.632 17.2479 266.542 12.3863C283.987 4.65765 298.442 -8.43126 307.913 -24.7612C315.514 -11.6723 319.875 3.6604 319.875 19.9904Z" fill="#F3DCCA"/>
<path d="M266.542 12.262C256.324 7.77442 247.227 1.41696 239.501 -6.31173C234.018 -11.7966 229.159 -18.0294 225.296 -24.8855C234.766 -41.2155 249.221 -54.3044 266.666 -62.0331C276.884 -57.5455 285.981 -51.188 293.707 -43.4593C299.19 -37.9744 304.05 -31.7416 307.913 -24.8855C298.442 -8.43089 283.987 4.65802 266.542 12.262Z" fill="#F2B05C"/>
<path d="M225.296 64.742C217.694 51.5284 213.333 36.3203 213.333 19.9904H230.405C243.364 19.9904 255.576 22.7328 266.666 27.5944C249.221 35.3231 234.766 48.412 225.296 64.742Z" fill="#F3DCCA"/>
<path d="M266.542 101.89C256.324 97.4019 247.227 91.0444 239.501 83.3158C234.018 77.8309 229.159 71.5981 225.296 64.742C234.766 48.412 249.221 35.3231 266.666 27.5944C276.884 32.082 285.981 38.4395 293.707 46.1682C299.19 51.653 304.05 57.8859 307.913 64.742C298.442 81.0719 283.987 94.1609 266.542 101.89Z" fill="#F2B05C"/>
<path d="M307.913 64.742C303.925 57.8859 299.19 51.6531 293.707 46.1682C285.981 38.4395 276.76 32.082 266.667 27.5944C277.757 22.7328 289.969 19.9904 302.928 19.9904H320C319.875 36.3203 315.514 51.5284 307.913 64.742Z" fill="#2A4759"/>
<path d="M319.875 109.493H302.804C289.969 109.493 277.632 106.751 266.542 101.889C283.987 94.1605 298.442 81.0715 307.913 64.7416C315.514 77.9551 319.875 93.1632 319.875 109.493Z" fill="#2A4759"/>
<path d="M230.405 109.493H213.333C213.333 93.1632 217.694 77.8305 225.296 64.7416C229.159 71.5977 234.018 77.8305 239.501 83.3154C247.227 91.044 256.448 97.4015 266.542 101.889C255.451 106.751 243.24 109.493 230.405 109.493Z" fill="#F3DCCA"/>
<path d="M266.542 117.098C255.452 112.236 243.24 109.494 230.281 109.494C243.24 109.494 255.452 106.751 266.542 101.89C277.633 106.751 289.845 109.494 302.804 109.494C289.969 109.494 277.633 112.236 266.542 117.098Z" fill="#D8762D"/>
<path d="M225.296 154.245C217.694 141.032 213.333 125.824 213.333 109.494H230.405C243.364 109.494 255.576 112.236 266.666 117.098C249.221 124.826 234.766 137.915 225.296 154.245Z" fill="#2A4759"/>
<path d="M266.542 206.725C255.452 201.864 243.24 199.121 230.281 199.121C243.24 199.121 255.452 196.379 266.542 191.517C277.633 196.379 289.845 199.121 302.804 199.121C289.969 199.121 277.633 201.864 266.542 206.725Z" fill="#D8762D"/>
<path d="M230.405 199.122H213.333C213.333 182.792 217.694 167.459 225.296 154.37C229.159 161.226 234.018 167.459 239.501 172.944C247.227 180.673 256.448 187.03 266.542 191.518C255.451 196.379 243.24 199.122 230.405 199.122Z" fill="#2A4759"/>
<path d="M319.875 199.122H302.804C289.969 199.122 277.632 196.379 266.542 191.518C283.987 183.789 298.442 170.7 307.913 154.37C315.514 167.459 319.875 182.792 319.875 199.122Z" fill="#F3DCCA"/>
<path d="M307.913 154.245C303.925 147.389 299.19 141.156 293.707 135.671C285.981 127.943 276.76 121.585 266.667 117.098C277.757 112.236 289.969 109.494 302.928 109.494H320C319.875 125.824 315.514 141.156 307.913 154.245Z" fill="#F3DCCA"/>
<path d="M266.542 191.393C256.324 186.905 247.227 180.548 239.501 172.819C234.018 167.334 229.159 161.101 225.296 154.245C234.766 137.915 249.221 124.826 266.666 117.098C276.884 121.585 285.981 127.943 293.707 135.671C299.19 141.156 304.05 147.389 307.913 154.245C298.442 170.7 283.987 183.789 266.542 191.393Z" fill="#F2B05C"/>
<path d="M225.296 243.873C217.694 230.66 213.333 215.452 213.333 199.122H230.405C243.364 199.122 255.576 201.864 266.666 206.726C249.221 214.454 234.766 227.543 225.296 243.873Z" fill="#F3DCCA"/>
<path d="M266.542 296.228C255.452 291.367 243.24 288.624 230.281 288.624C243.24 288.624 255.452 285.882 266.542 281.021C277.633 285.882 289.845 288.624 302.804 288.624C289.969 288.624 277.633 291.367 266.542 296.228Z" fill="#D8762D"/>
<path d="M230.405 288.625H213.333C213.333 272.295 217.694 256.962 225.296 243.873C229.283 250.729 234.018 256.962 239.501 262.447C247.227 270.176 256.448 276.533 266.542 281.021C255.451 285.882 243.24 288.625 230.405 288.625Z" fill="#F3DCCA"/>
<path d="M319.875 288.625H302.804C289.969 288.625 277.632 285.882 266.542 281.021C283.987 273.292 298.442 260.203 307.913 243.873C315.514 257.087 319.875 272.295 319.875 288.625Z" fill="#2A4759"/>
<path d="M307.913 243.873C303.925 237.017 299.19 230.784 293.707 225.299C285.981 217.571 276.76 211.213 266.667 206.726C277.757 201.864 289.969 199.122 302.928 199.122H320C319.875 215.452 315.514 230.66 307.913 243.873Z" fill="#2A4759"/>
<path d="M266.542 281.021C256.324 276.533 247.227 270.176 239.501 262.447C234.018 256.962 229.159 250.729 225.296 243.873C234.766 227.543 249.221 214.454 266.666 206.726C276.884 211.213 285.981 217.571 293.707 225.299C299.19 230.784 304.05 237.017 307.913 243.873C298.442 260.203 283.987 273.292 266.542 281.021Z" fill="#F2B05C"/>
<path d="M225.296 333.501C217.694 320.287 213.333 305.079 213.333 288.749H230.405C243.364 288.749 255.576 291.492 266.666 296.353C249.221 303.957 234.766 317.046 225.296 333.501Z" fill="#2A4759"/>
<path d="M266.542 370.648C256.324 366.161 247.227 359.803 239.501 352.074C234.018 346.59 229.159 340.357 225.296 333.501C234.766 317.171 249.221 304.082 266.666 296.353C276.884 300.841 285.981 307.198 293.707 314.927C299.19 320.412 304.05 326.645 307.913 333.501C298.442 349.831 283.987 362.92 266.542 370.648Z" fill="#F2B05C"/>
<path d="M307.913 333.501C303.925 326.645 299.19 320.412 293.707 314.927C285.981 307.198 276.76 300.841 266.667 296.353C277.757 291.492 289.969 288.749 302.928 288.749H320C319.875 304.954 315.514 320.287 307.913 333.501Z" fill="#F3DCCA"/>
</g>
</svg>
