<svg viewBox="0 0 408 695" fill="none" xmlns="http://www.w3.org/2000/svg">
<path d="M248.096 150.768C230.9 143.23 211.964 138.977 191.869 138.977C211.964 138.977 230.9 134.725 248.096 127.187C265.293 134.725 284.229 138.977 304.324 138.977C284.229 138.977 265.1 143.23 248.096 150.768Z" fill="#F2B05C"/>
<path d="M165.398 138.977H0V0H165.398C165.398 25.3213 172.16 49.0963 183.947 69.392C172.16 89.881 165.398 113.656 165.398 138.977Z" fill="#B1D2DE"/>
<path d="M191.869 138.977H165.398C165.398 113.656 172.161 89.881 183.947 69.5853C190.13 80.0231 197.473 89.6878 205.974 98.3859C217.954 110.37 232.253 120.228 247.903 127.187C230.9 134.725 211.771 138.977 191.869 138.977Z" fill="#2A4759"/>
<path d="M312.053 69.392C305.87 58.7609 298.527 49.0963 290.026 40.5914C278.046 28.6073 263.747 18.7494 248.096 11.7908C265.293 4.25243 284.229 0 304.324 0H330.795C330.602 25.3213 323.839 49.0963 312.053 69.392Z" fill="#F3DCCA"/>
<path d="M496 138.977H330.602C330.602 113.656 323.839 89.8811 312.053 69.5854C323.839 49.0964 330.602 25.5147 330.602 0.193359H496V138.977Z" fill="#B1D2DE"/>
<path d="M330.602 138.977H304.131C284.229 138.977 265.1 134.725 247.903 127.187C274.954 115.202 297.368 94.9067 312.053 69.5853C323.839 89.881 330.602 113.656 330.602 138.977Z" fill="#F3DCCA"/>
<path d="M248.096 126.993C232.252 120.035 218.147 110.177 206.167 98.1926C197.666 89.6878 190.13 80.0232 184.14 69.3921C198.825 44.0707 221.239 23.775 248.29 11.7909C264.134 18.7494 278.239 28.6073 290.219 40.5915C298.721 49.0964 306.256 58.761 312.246 69.3921C297.368 94.9067 274.954 115.202 248.096 126.993Z" fill="#D8762D"/>
<path d="M183.947 69.392C172.161 49.0963 165.398 25.3213 165.398 0H191.869C211.964 0 230.9 4.25243 248.097 11.7908C221.046 23.775 198.632 44.0707 183.947 69.392Z" fill="#2A4759"/>
<path d="M165.398 277.761H0V138.977H165.398C165.398 164.299 172.16 188.074 183.947 208.369C172.16 228.858 165.398 252.44 165.398 277.761Z" fill="#E4F0F2"/>
<path d="M183.947 208.369C172.161 187.88 165.398 164.299 165.398 138.977H191.869C211.964 138.977 230.9 143.23 248.097 150.768C221.046 162.752 198.632 183.048 183.947 208.369Z" fill="#F3DCCA"/>
<path d="M248.096 265.971C232.252 259.012 218.147 249.154 206.167 237.17C197.666 228.665 190.13 219 184.14 208.369C198.825 183.048 221.239 162.752 248.29 150.768C264.134 157.727 278.239 167.585 290.219 179.569C298.721 188.074 306.256 197.738 312.246 208.369C297.368 233.691 274.954 253.986 248.096 265.971Z" fill="#D8762D"/>
<path d="M312.053 208.369C305.87 197.738 298.527 188.074 290.026 179.569C278.046 167.585 263.747 157.727 248.096 150.768C265.293 143.23 284.229 138.977 304.324 138.977H330.795C330.602 164.299 323.839 187.88 312.053 208.369Z" fill="#2A4759"/>
<path d="M496 277.761H330.602C330.602 252.44 323.839 228.665 312.053 208.369C323.839 187.88 330.602 164.299 330.602 138.977H496V277.761Z" fill="#E4F0F2"/>
<path d="M330.602 277.761H304.131C284.229 277.761 265.1 273.509 247.903 265.971C274.954 253.986 297.368 233.691 312.053 208.369C323.839 228.858 330.602 252.44 330.602 277.761Z" fill="#2A4759"/>
<path d="M191.869 277.761H165.398C165.398 252.44 172.161 228.665 183.947 208.369C189.937 219 197.473 228.665 205.974 237.17C217.954 249.154 232.253 259.012 247.903 265.971C230.9 273.509 211.771 277.761 191.869 277.761Z" fill="#F3DCCA"/>
<path d="M248.096 289.552C247.903 289.552 247.903 289.552 248.096 289.552C230.9 282.014 211.964 277.761 191.869 277.761C211.964 277.761 230.9 273.509 248.096 265.971C265.293 273.509 284.229 277.761 304.324 277.761C284.229 277.761 265.293 282.014 248.096 289.552Z" fill="#F2B05C"/>
<path d="M183.947 347.153C172.161 326.664 165.398 303.083 165.398 277.761H191.869C211.964 277.761 230.9 282.014 248.097 289.552C221.046 301.536 198.632 321.832 183.947 347.153Z" fill="#2A4759"/>
<path d="M165.398 416.739H0V277.761H165.398C165.398 303.083 172.16 326.858 183.947 347.153C172.16 367.642 165.398 391.417 165.398 416.739Z" fill="#B1D2DE"/>
<path d="M247.904 428.529C230.707 420.991 211.771 416.739 191.676 416.739C211.771 416.739 230.707 412.486 247.904 404.948C265.1 412.486 284.036 416.739 304.131 416.739C284.229 416.739 265.1 420.991 247.904 428.529Z" fill="#F2B05C"/>
<path d="M191.869 416.739H165.398C165.398 391.417 172.161 367.642 183.947 347.347C189.937 357.978 197.473 367.642 205.974 376.147C217.954 388.131 232.253 397.989 247.903 404.948C230.9 412.486 211.771 416.739 191.869 416.739Z" fill="#2A4759"/>
<path d="M330.602 416.739H304.131C284.229 416.739 265.1 412.486 247.903 404.948C274.954 392.964 297.368 372.668 312.053 347.347C323.839 367.642 330.602 391.417 330.602 416.739Z" fill="#F3DCCA"/>
<path d="M312.053 347.153C305.87 336.522 298.527 326.858 290.026 318.353C278.046 306.369 263.747 296.511 248.096 289.552C265.293 282.014 284.229 277.761 304.324 277.761H330.795C330.602 303.083 323.839 326.858 312.053 347.153Z" fill="#F3DCCA"/>
<path d="M496 416.739H330.602C330.602 391.417 323.839 367.642 312.053 347.347C323.839 326.858 330.602 303.276 330.602 277.955H496V416.739Z" fill="#B1D2DE"/>
<path d="M247.904 404.755C232.059 397.796 217.954 387.938 205.974 375.954C197.473 367.449 189.937 357.785 183.947 347.153C198.632 321.832 221.046 301.536 248.097 289.552C263.941 296.511 278.046 306.369 290.026 318.353C298.528 326.858 306.063 336.522 312.053 347.153C297.368 372.668 274.955 392.964 247.904 404.755Z" fill="#D8762D"/>
<path d="M183.947 486.131C172.161 465.642 165.398 442.06 165.398 416.739H191.869C211.964 416.739 230.9 420.991 248.097 428.53C221.046 440.514 198.632 460.809 183.947 486.131Z" fill="#F3DCCA"/>
<path d="M165.398 555.523H0V416.739H165.398C165.398 442.06 172.16 465.835 183.947 486.131C172.16 506.62 165.398 530.201 165.398 555.523Z" fill="#E4F0F2"/>
<path d="M247.904 567.313C230.707 559.775 211.771 555.523 191.676 555.523C211.771 555.523 230.707 551.27 247.904 543.732C265.1 551.27 284.036 555.523 304.131 555.523C284.229 555.523 265.1 559.775 247.904 567.313Z" fill="#F2B05C"/>
<path d="M191.869 555.523H165.398C165.398 530.201 172.161 506.426 183.947 486.131C190.13 496.762 197.473 506.426 205.974 514.931C217.954 526.915 232.253 536.773 247.903 543.732C230.9 551.27 211.771 555.523 191.869 555.523Z" fill="#F3DCCA"/>
<path d="M330.602 555.523H304.131C284.229 555.523 265.1 551.27 247.903 543.732C274.954 531.748 297.368 511.452 312.053 486.131C323.839 506.62 330.602 530.201 330.602 555.523Z" fill="#2A4759"/>
<path d="M312.053 486.131C305.87 475.5 298.527 465.835 290.026 457.33C278.046 445.346 263.747 435.488 248.096 428.53C265.293 420.991 284.229 416.739 304.324 416.739H330.795C330.602 442.06 323.839 465.642 312.053 486.131Z" fill="#2A4759"/>
<path d="M496 555.523H330.602C330.602 530.201 323.839 506.426 312.053 486.131C323.839 465.642 330.602 442.06 330.602 416.739H496V555.523Z" fill="#E4F0F2"/>
<path d="M247.904 543.732C232.059 536.773 217.954 526.915 205.974 514.931C197.473 506.426 189.937 496.762 183.947 486.131C198.632 460.809 221.046 440.514 248.097 428.53C263.941 435.488 278.046 445.346 290.026 457.33C298.528 465.835 306.063 475.5 312.053 486.131C297.368 511.452 274.955 531.748 247.904 543.732Z" fill="#D8762D"/>
<path d="M165.398 694.5H0V555.523H165.398C165.398 580.844 172.16 604.619 183.947 624.915C172.16 645.404 165.398 669.179 165.398 694.5Z" fill="#B1D2DE"/>
<path d="M183.947 625.108C172.161 604.619 165.398 581.037 165.398 555.716H191.869C211.964 555.716 230.9 559.969 248.097 567.507C221.046 579.298 198.632 599.593 183.947 625.108Z" fill="#2A4759"/>
<path d="M247.904 682.709C232.059 675.751 217.954 665.893 205.974 653.909C197.473 645.404 189.937 635.739 183.947 625.108C198.632 599.787 221.046 579.491 248.097 567.507C263.941 574.465 278.046 584.323 290.026 596.308C298.528 604.812 306.063 614.477 312.053 625.108C297.368 650.429 274.955 670.725 247.904 682.709Z" fill="#D8762D"/>
<path d="M496 694.5H330.602C330.602 669.179 323.839 645.404 312.053 625.108C323.839 604.619 330.602 581.037 330.602 555.716H496V694.5Z" fill="#B1D2DE"/>
<path d="M312.053 625.108C305.87 614.477 298.527 604.812 290.026 596.307C278.046 584.323 263.747 574.465 248.096 567.507C265.293 559.969 284.229 555.716 304.324 555.716H330.795C330.602 580.844 323.839 604.619 312.053 625.108Z" fill="#F3DCCA"/>
<path d="M330.602 694.5H304.131C284.229 694.5 265.1 690.248 247.903 682.709C274.954 670.725 297.368 650.429 312.053 625.108C323.839 645.404 330.602 669.179 330.602 694.5Z" fill="#F3DCCA"/>
<path d="M191.869 694.5H165.398C165.398 669.179 172.161 645.404 183.947 625.108C189.937 635.546 197.473 645.21 205.974 653.908C217.954 665.893 232.253 675.751 247.903 682.709C230.9 690.248 211.771 694.5 191.869 694.5Z" fill="#2A4759"/>
<path d="M82.699 150.768C65.5023 143.23 46.5665 138.977 26.4715 138.977C46.5665 138.977 65.5023 134.725 82.699 127.187C99.8957 134.725 118.831 138.977 138.926 138.977C118.831 138.977 99.8957 143.23 82.699 150.768Z" fill="#D8762D"/>
<path d="M26.4714 138.977H0C0 113.656 6.76276 89.881 18.5493 69.5853C24.7324 80.0231 32.0748 89.6878 40.5765 98.3859C52.5563 110.37 66.8547 120.228 82.5057 127.187C65.5021 134.725 46.5664 138.977 26.4714 138.977Z" fill="#2A4759"/>
<path d="M146.848 69.392C140.665 58.7609 133.323 49.0963 124.821 40.5914C112.648 28.6073 98.3496 18.7494 82.6987 11.7908C99.8954 4.25243 118.831 0 138.926 0H165.398C165.398 25.3213 158.635 49.0963 146.848 69.392Z" fill="#F3DCCA"/>
<path d="M165.398 138.977H138.926C119.024 138.977 99.8954 134.725 82.6987 127.187C109.75 115.202 132.163 94.9067 146.848 69.5853C158.635 89.881 165.398 113.656 165.398 138.977Z" fill="#F3DCCA"/>
<path d="M82.699 126.993C66.8548 120.035 52.7496 110.177 40.7699 98.1926C32.2681 89.6878 24.7325 80.0232 18.7426 69.3921C33.4275 44.0707 55.8412 23.775 82.8922 11.7909C98.7364 18.7494 112.842 28.6073 124.821 40.5915C133.323 49.0964 140.859 58.761 146.849 69.3921C132.164 94.9067 109.557 115.202 82.699 126.993Z" fill="#F2B05C"/>
<path d="M18.5493 69.392C6.76276 49.0963 0 25.3213 0 0H26.4714C46.5664 0 65.5021 4.25243 82.6989 11.7908C55.6478 23.775 33.2341 44.0707 18.5493 69.392Z" fill="#2A4759"/>
<path d="M18.5493 208.369C6.76276 187.88 0 164.299 0 138.977H26.4714C46.5664 138.977 65.5021 143.23 82.6989 150.768C55.6478 162.752 33.2341 183.048 18.5493 208.369Z" fill="#F3DCCA"/>
<path d="M82.699 265.971C66.8548 259.012 52.7496 249.154 40.7699 237.17C32.2681 228.665 24.7325 219 18.7426 208.369C33.2342 183.048 55.6479 162.752 82.699 150.768C98.5432 157.727 112.648 167.585 124.628 179.569C133.13 188.074 140.665 197.738 146.655 208.369C132.164 233.691 109.75 253.986 82.699 265.971Z" fill="#F2B05C"/>
<path d="M146.848 208.369C140.665 197.738 133.323 188.074 124.821 179.569C112.648 167.585 98.3496 157.727 82.6987 150.768C99.8954 143.23 118.831 138.977 138.926 138.977H165.398C165.398 164.299 158.635 187.88 146.848 208.369Z" fill="#2A4759"/>
<path d="M165.398 277.761H138.926C119.024 277.761 99.8954 273.509 82.6987 265.971C109.75 253.986 132.163 233.691 146.848 208.369C158.635 228.858 165.398 252.44 165.398 277.761Z" fill="#2A4759"/>
<path d="M26.4714 277.761H0C0 252.44 6.76276 228.665 18.5493 208.369C24.5392 219 32.0748 228.665 40.5765 237.17C52.5563 249.154 66.8547 259.012 82.5057 265.971C65.5021 273.509 46.5664 277.761 26.4714 277.761Z" fill="#F3DCCA"/>
<path d="M82.699 289.552C65.5023 282.014 46.5665 277.761 26.4715 277.761C46.5665 277.761 65.5023 273.509 82.699 265.971C99.8957 273.509 118.831 277.761 138.926 277.761C118.831 277.761 99.8957 282.014 82.699 289.552Z" fill="#D8762D"/>
<path d="M18.5493 347.153C6.76276 326.858 0 303.083 0 277.761H26.4714C46.5664 277.761 65.5021 282.014 82.6989 289.552C55.6478 301.536 33.2341 321.832 18.5493 347.153Z" fill="#2A4759"/>
<path d="M82.699 428.529C65.5023 420.991 46.5665 416.739 26.4715 416.739C46.5665 416.739 65.5023 412.486 82.699 404.948C99.8957 412.486 118.831 416.739 138.926 416.739C118.831 416.739 99.8957 420.991 82.699 428.529Z" fill="#D8762D"/>
<path d="M26.4714 416.739H0C0 391.417 6.76276 367.642 18.5493 347.347C24.5392 357.978 32.0748 367.642 40.5765 376.147C52.5563 388.131 66.8547 397.989 82.5057 404.948C65.5021 412.486 46.5664 416.739 26.4714 416.739Z" fill="#2A4759"/>
<path d="M165.398 416.739H138.926C119.024 416.739 99.8954 412.486 82.6987 404.948C109.75 392.964 132.163 372.668 146.848 347.347C158.635 367.642 165.398 391.417 165.398 416.739Z" fill="#F3DCCA"/>
<path d="M146.848 347.153C140.665 336.522 133.323 326.858 124.821 318.353C112.841 306.369 98.5429 296.511 82.892 289.552C100.089 282.014 119.024 277.761 139.119 277.761H165.591C165.398 303.083 158.635 326.858 146.848 347.153Z" fill="#F3DCCA"/>
<path d="M82.699 404.755C66.8548 397.796 52.7496 387.938 40.7699 375.954C32.2681 367.449 24.7325 357.785 18.7426 347.153C33.4275 321.832 55.8412 301.536 82.8922 289.552C98.7364 296.511 112.842 306.369 124.821 318.353C133.323 326.858 140.859 336.522 146.849 347.153C132.164 372.668 109.75 392.964 82.699 404.755Z" fill="#F2B05C"/>
<path d="M18.5493 486.131C6.76276 465.642 0 442.06 0 416.739H26.4714C46.5664 416.739 65.5021 420.991 82.6989 428.53C55.6478 440.514 33.2341 460.809 18.5493 486.131Z" fill="#F3DCCA"/>
<path d="M82.699 567.313C65.5023 559.775 46.5665 555.523 26.4715 555.523C46.5665 555.523 65.5023 551.27 82.699 543.732C99.8957 551.27 118.831 555.523 138.926 555.523C118.831 555.523 99.8957 559.775 82.699 567.313Z" fill="#D8762D"/>
<path d="M26.4714 555.523H0C0 530.201 6.76276 506.426 18.5493 486.131C24.7324 496.762 32.0748 506.426 40.5765 514.931C52.5563 526.915 66.8547 536.773 82.5057 543.732C65.5021 551.27 46.5664 555.523 26.4714 555.523Z" fill="#F3DCCA"/>
<path d="M165.398 555.523H138.926C119.024 555.523 99.8954 551.27 82.6987 543.732C109.75 531.748 132.163 511.452 146.848 486.131C158.635 506.62 165.398 530.201 165.398 555.523Z" fill="#2A4759"/>
<path d="M146.848 486.131C140.665 475.5 133.323 465.835 124.821 457.33C112.841 445.346 98.5429 435.488 82.892 428.53C100.089 420.991 119.024 416.739 139.119 416.739H165.591C165.398 442.06 158.635 465.642 146.848 486.131Z" fill="#2A4759"/>
<path d="M82.699 543.732C66.8548 536.773 52.7496 526.915 40.7699 514.931C32.2681 506.426 24.7325 496.762 18.7426 486.131C33.4275 460.809 55.8412 440.514 82.8922 428.53C98.7364 435.488 112.842 445.346 124.821 457.33C133.323 465.835 140.665 475.5 146.849 486.131C132.164 511.452 109.557 531.748 82.699 543.732Z" fill="#F2B05C"/>
<path d="M18.5493 625.108C6.76276 604.619 0 580.844 0 555.523H26.4714C46.5664 555.523 65.5021 559.775 82.6989 567.314C55.6478 579.298 33.2341 599.593 18.5493 625.108Z" fill="#2A4759"/>
<path d="M82.699 682.709C66.8548 675.751 52.7496 665.893 40.7699 653.909C32.2681 645.404 24.7325 635.739 18.7426 625.108C33.4275 599.787 55.8412 579.491 82.8922 567.507C98.7364 574.465 112.842 584.323 124.821 596.308C133.323 604.812 140.859 614.477 146.849 625.108C132.164 650.429 109.75 670.725 82.699 682.709Z" fill="#F2B05C"/>
<path d="M146.848 625.108C140.665 614.477 133.323 604.812 124.821 596.307C112.841 584.323 98.5429 574.465 82.892 567.507C100.089 559.969 119.024 555.716 139.119 555.716H165.591C165.398 580.844 158.635 604.619 146.848 625.108Z" fill="#F3DCCA"/>
<path d="M165.398 694.5H138.926C119.024 694.5 99.8954 690.248 82.6987 682.709C109.75 670.725 132.163 650.429 146.848 625.108C158.635 645.404 165.398 669.179 165.398 694.5Z" fill="#F3DCCA"/>
<path d="M26.4714 694.5H0C0 669.179 6.76276 645.404 18.5493 625.108C24.5392 635.546 32.0748 645.21 40.5765 653.908C52.5563 665.893 66.8547 675.751 82.5057 682.709C65.5021 690.248 46.5664 694.5 26.4714 694.5Z" fill="#2A4759"/>
<path d="M413.301 150.768C396.104 143.23 377.169 138.977 357.073 138.977C377.169 138.977 396.104 134.725 413.301 127.187C430.498 134.725 449.433 138.977 469.528 138.977C449.627 138.977 430.498 143.23 413.301 150.768Z" fill="#D8762D"/>
<path d="M357.267 138.977H330.796C330.796 113.656 337.558 89.881 349.345 69.5853C355.528 80.0231 362.87 89.6878 371.372 98.3859C383.352 110.37 397.65 120.228 413.301 127.187C396.105 134.725 377.169 138.977 357.267 138.977Z" fill="#2A4759"/>
<path d="M413.301 126.993C397.457 120.035 383.352 110.177 371.372 98.1926C362.87 89.6878 355.334 80.0232 349.345 69.3921C364.029 44.0707 386.443 23.775 413.494 11.7909C429.338 18.7494 443.444 28.6073 455.423 40.5915C463.925 49.0964 471.461 58.761 477.451 69.3921C462.766 94.9067 440.352 115.202 413.301 126.993Z" fill="#F2B05C"/>
<path d="M349.345 69.392C337.558 48.903 330.796 25.3213 330.796 0H357.267C377.362 0 396.298 4.25243 413.495 11.7908C386.443 23.775 364.03 44.0707 349.345 69.392Z" fill="#2A4759"/>
<path d="M349.345 208.369C337.558 187.88 330.796 164.299 330.796 138.977H357.267C377.362 138.977 396.298 143.23 413.495 150.768C386.443 162.752 364.03 183.048 349.345 208.369Z" fill="#F3DCCA"/>
<path d="M413.301 265.971C397.457 259.012 383.352 249.154 371.372 237.17C362.87 228.665 355.334 219 349.345 208.369C364.029 183.048 386.443 162.752 413.494 150.768C429.338 157.727 443.444 167.585 455.423 179.569C463.925 188.074 471.461 197.738 477.451 208.369C462.766 233.691 440.352 253.986 413.301 265.971Z" fill="#F2B05C"/>
<path d="M357.267 277.761H330.796C330.796 252.44 337.558 228.665 349.345 208.369C355.335 219 362.87 228.665 371.372 237.17C383.352 249.154 397.65 259.012 413.301 265.971C396.105 273.509 377.169 277.761 357.267 277.761Z" fill="#F3DCCA"/>
<path d="M413.301 289.552C396.104 282.014 377.169 277.761 357.073 277.761C377.169 277.761 396.104 273.509 413.301 265.971C430.498 273.509 449.433 277.761 469.528 277.761C449.627 277.761 430.498 282.014 413.301 289.552Z" fill="#D8762D"/>
<path d="M349.345 347.153C337.558 326.664 330.796 303.083 330.796 277.761H357.267C377.362 277.761 396.298 282.014 413.495 289.552C386.443 301.536 364.03 321.832 349.345 347.153Z" fill="#2A4759"/>
<path d="M413.301 428.529C396.104 420.991 377.169 416.739 357.073 416.739C377.169 416.739 396.104 412.486 413.301 404.948C430.498 412.486 449.433 416.739 469.528 416.739C449.627 416.739 430.498 420.991 413.301 428.529Z" fill="#D8762D"/>
<path d="M357.267 416.739H330.796C330.796 391.417 337.558 367.642 349.345 347.347C355.335 357.978 362.87 367.642 371.372 376.147C383.352 388.131 397.65 397.989 413.301 404.948C396.105 412.486 377.169 416.739 357.267 416.739Z" fill="#2A4759"/>
<path d="M413.301 404.755C397.457 397.796 383.352 387.938 371.372 375.954C362.87 367.449 355.334 357.785 349.345 347.153C364.029 321.832 386.443 301.536 413.494 289.552C429.338 296.511 443.444 306.369 455.423 318.353C463.925 326.858 471.461 336.522 477.451 347.153C462.766 372.668 440.352 392.964 413.301 404.755Z" fill="#F2B05C"/>
<path d="M349.345 486.131C337.558 465.642 330.796 442.06 330.796 416.739H357.267C377.362 416.739 396.298 420.991 413.495 428.53C386.443 440.514 364.03 460.809 349.345 486.131Z" fill="#F3DCCA"/>
<path d="M413.301 567.313C396.104 559.775 377.169 555.523 357.073 555.523C377.169 555.523 396.104 551.27 413.301 543.732C430.498 551.27 449.433 555.523 469.528 555.523C449.627 555.523 430.498 559.775 413.301 567.313Z" fill="#D8762D"/>
<path d="M357.267 555.523H330.796C330.796 530.201 337.558 506.426 349.345 486.131C355.528 496.762 362.87 506.426 371.372 514.931C383.352 526.915 397.65 536.773 413.301 543.732C396.105 551.27 377.169 555.523 357.267 555.523Z" fill="#F3DCCA"/>
<path d="M413.301 543.732C397.457 536.773 383.352 526.915 371.372 514.931C362.87 506.426 355.334 496.762 349.345 486.131C364.029 460.809 386.443 440.514 413.494 428.53C429.338 435.488 443.444 445.346 455.423 457.33C463.925 465.835 471.461 475.5 477.451 486.131C462.766 511.452 440.352 531.748 413.301 543.732Z" fill="#F2B05C"/>
<path d="M349.345 625.108C337.558 604.619 330.796 581.037 330.796 555.716H357.267C377.362 555.716 396.298 559.969 413.495 567.507C386.443 579.298 364.03 599.593 349.345 625.108Z" fill="#2A4759"/>
<path d="M413.301 682.709C397.457 675.751 383.352 665.893 371.372 653.909C362.87 645.404 355.334 635.739 349.345 625.108C364.029 599.787 386.443 579.491 413.494 567.507C429.338 574.465 443.444 584.323 455.423 596.308C463.925 604.812 471.461 614.477 477.451 625.108C462.766 650.429 440.352 670.725 413.301 682.709Z" fill="#F2B05C"/>
<path d="M357.267 694.5H330.796C330.796 669.179 337.558 645.404 349.345 625.108C355.335 635.546 362.87 645.21 371.372 653.908C383.352 665.893 397.65 675.751 413.301 682.709C396.105 690.248 377.169 694.5 357.267 694.5Z" fill="#2A4759"/>
</svg>
