<svg width="125" height="44" viewBox="0 0 125 44" fill="none" xmlns="http://www.w3.org/2000/svg">
<path d="M5.62016 19.9611H0C0 19.9611 0.193798 19.9611 0.387597 19.7673C0.581395 19.5735 0.775194 19.3798 0.968992 18.7984C1.16279 18.4108 1.16279 17.8294 1.16279 16.8604V3.29448C1.16279 2.51928 1.16279 1.93789 0.968992 1.55029C0.775194 1.16269 0.581395 0.968896 0.387597 0.775098C0.193798 0.775098 0 0.581299 0 0.775098H5.42636C8.33333 0.775098 10.4651 1.16269 12.2093 2.13169C13.7597 2.90688 14.9225 4.06967 15.6977 5.42626C16.4729 6.78285 16.8605 8.33324 16.8605 10.0774C16.8605 12.0154 16.4729 13.5658 15.6977 15.1162C14.9225 16.4728 13.9535 17.6356 12.5969 18.4108C10.8527 19.3798 8.52713 19.9611 5.62016 19.9611ZM8.91473 2.13169C7.94574 1.93789 6.78295 1.74409 5.42636 1.74409H3.29457V18.7984H5.62016C7.17054 18.7984 8.33333 18.6046 9.30233 18.4108C10.2713 18.217 11.0465 17.8294 11.8217 17.248C12.7907 16.4728 13.3721 15.6976 13.9535 14.5348C14.3411 13.372 14.7287 12.0154 14.7287 10.465C14.7287 8.91463 14.5349 7.36425 13.9535 6.20146C13.1783 5.03866 12.4031 4.06967 11.4341 3.29448C10.6589 2.90688 9.68992 2.51928 8.91473 2.13169Z" fill="#FCFAF9"/>
<path d="M20.9302 19.9611C20.9302 19.9611 21.124 19.9611 21.3178 19.7673C21.5116 19.5735 21.7054 19.3797 21.8992 18.9921C22.093 18.6045 22.093 18.0231 22.093 17.2479V3.4882C22.093 2.71301 22.093 2.13161 21.8992 1.74402C21.7054 1.35642 21.5116 1.16262 21.3178 0.968823C21.124 0.775024 20.9302 0.775024 20.9302 0.775024H31.0077V3.4882C30.6201 2.32541 29.6512 1.74402 27.907 1.74402H24.031V9.68975H28.876C29.2636 9.68975 29.6512 9.68975 29.845 9.49596C30.0387 9.30216 30.2325 9.30216 30.4263 9.10836C30.6201 8.91456 30.6201 8.91456 30.6201 8.91456V11.6277C30.6201 11.6277 30.6201 11.4339 30.4263 11.4339C30.2325 11.2401 30.0387 11.2401 29.845 11.0463C29.6512 10.8525 29.2636 10.8525 28.876 10.8525H24.031V18.7983H28.4884C29.2636 18.7983 30.0388 18.6045 30.6201 18.2169C31.2015 17.8293 31.5891 17.4417 31.9767 16.8603L31.3953 19.7673H20.9302V19.9611Z" fill="#FCFAF9"/>
<path d="M51.938 19.9613C52.1318 19.9613 52.3256 19.7675 52.7132 19.3799C52.907 18.9923 53.1008 18.4109 53.1008 17.4419V3.2946L45.7364 20.3489L38.3721 3.4884V17.2481C38.3721 18.2171 38.5659 18.9923 38.9535 19.3799C39.3411 19.7675 39.5349 19.9613 39.9225 19.9613H35.8527C36.0465 19.9613 36.4341 19.7675 36.8217 19.3799C36.6279 18.9923 36.8217 18.2171 36.8217 17.2481V3.1008C36.8217 2.13181 36.6279 1.55041 36.4341 1.16282C36.0465 0.775219 35.8527 0.581421 35.4651 0.581421H39.3411L46.124 16.2791L52.907 0.581421H56.2016C56.0078 0.581421 55.6202 0.775219 55.4264 1.16282C55.2326 1.55041 55.0388 2.13181 55.0388 3.1008V17.2481C55.0388 18.2171 55.2326 18.7985 55.4264 19.1861C55.6202 19.5737 56.0078 19.7675 56.2016 19.7675H51.938V19.9613Z" fill="#FCFAF9"/>
<path d="M60.4651 19.9611C60.4651 19.9611 60.6589 19.9611 60.8527 19.7673C61.0465 19.5735 61.2403 19.3797 61.4341 18.9921C61.6279 18.6045 61.6279 18.0231 61.6279 17.2479V3.4882C61.6279 2.71301 61.6279 2.13161 61.4341 1.74402C61.2403 1.35642 61.0465 1.16262 60.8527 0.968823C60.6589 0.775024 60.4651 0.775024 60.4651 0.775024H70.5426V3.4882C70.3488 2.32541 69.3798 1.74402 67.6357 1.74402H63.7597V9.68975H68.6047C68.9923 9.68975 69.3798 9.68975 69.5736 9.49596C69.7674 9.49596 69.9612 9.30216 70.155 9.30216C70.3488 9.10836 70.3488 9.10836 70.3488 9.10836V11.8215C70.3488 11.8215 70.3488 11.6277 70.155 11.6277C69.9612 11.4339 69.7674 11.4339 69.5736 11.2401C69.3798 11.0463 68.9923 11.0463 68.6047 11.0463H63.7597V18.9921H68.2171C68.9923 18.9921 69.7674 18.7983 70.3488 18.4107C70.9302 18.0231 71.3178 17.6355 71.7054 17.0541L71.124 19.9611H60.4651Z" fill="#FCFAF9"/>
<path d="M75 2.32541C74.4186 2.71301 74.031 3.10061 73.8372 3.4882L74.2248 0.775024H87.5969L87.9845 3.4882C87.7907 2.90681 87.4031 2.51921 86.8217 2.32541C86.2403 1.93782 85.6589 1.74402 84.6899 1.74402H81.9768V17.2479C81.9768 18.0231 81.9768 18.6045 82.1706 18.9921C82.3644 19.3797 82.5582 19.5735 82.752 19.7673C82.9458 19.9611 83.1396 19.9611 83.1396 19.9611H78.6822C78.6822 19.9611 78.876 19.9611 79.0698 19.7673C79.2636 19.5735 79.4574 19.3797 79.6512 18.9921C79.845 18.6045 79.845 18.0231 79.845 17.2479V1.74402H77.1318C76.3566 1.74402 75.5814 1.93782 75 2.32541Z" fill="#FCFAF9"/>
<path d="M98.6434 9.68975C99.2248 9.30216 99.8062 8.72076 100 8.13937C100.388 7.55797 100.581 6.78278 100.581 6.20138C100.581 5.42619 100.388 4.84479 100.194 4.0696C99.8062 3.4882 99.4186 2.90681 98.8372 2.51921C98.062 1.93782 97.2868 1.74402 96.5116 1.74402H94.186V17.2479C94.186 18.0231 94.1861 18.6045 94.3799 18.9921C94.5736 19.3797 94.7674 19.5735 94.9612 19.7673C95.155 19.9611 95.3488 19.9611 95.3488 19.9611H90.8915C90.8915 19.9611 91.0853 19.9611 91.2791 19.7673C91.4729 19.5735 91.6667 19.3797 91.8605 18.9921C92.0543 18.6045 92.0543 18.0231 92.0543 17.2479V3.4882C92.0543 2.71301 92.0543 2.13161 91.8605 1.74402C91.6667 1.35642 91.4729 1.16262 91.2791 0.968823C91.0853 0.775024 90.8915 0.775024 90.8915 0.775024H96.5116C98.062 0.775024 99.2248 0.968823 100.194 1.55022C101.163 1.93782 101.744 2.71301 102.326 3.4882C102.519 4.0696 102.713 4.84479 102.713 5.81378C102.713 6.58898 102.519 7.36417 102.132 7.94557C101.744 8.72076 101.357 9.30216 100.581 9.88355C100 10.4649 99.2248 10.8525 98.2558 11.0463H97.8682L102.713 17.2479C103.295 18.0231 103.876 18.6045 104.264 18.9921C104.651 19.3797 105.039 19.5735 105.233 19.7673C105.426 19.9611 105.62 19.9611 105.62 19.9611H102.326L94.7674 10.2712H96.5116C97.2868 10.2712 98.062 10.0774 98.6434 9.68975Z" fill="#FCFAF9"/>
<path d="M111.822 12.5969L110.078 17.0543C109.884 17.8295 109.69 18.4109 109.69 18.7985C109.69 19.3798 109.884 19.7674 110.465 20.155H106.395C106.589 20.155 106.783 19.9612 107.171 19.5736C107.558 19.186 107.946 18.4109 108.333 17.4419L115.698 0L122.868 17.4419C123.256 18.4109 123.643 19.186 124.031 19.5736C124.419 19.9612 124.806 20.155 125 20.155H120.349C120.736 19.9612 121.124 19.5736 121.124 19.186C121.124 18.7985 120.93 18.2171 120.736 17.4419L118.798 12.5969H111.822ZM118.217 11.4341L115.116 3.87597L112.209 11.4341H118.217Z" fill="#FCFAF9"/>
<path d="M64.7287 29.0694C64.1473 30.2322 62.0155 35.271 61.6279 36.8214C61.2403 37.9842 60.6589 39.5346 60.8527 40.8912C61.0465 41.4725 61.4341 41.8601 62.0155 41.8601C62.7907 42.0539 64.1473 40.8911 64.5349 40.5036C66.0853 38.9532 69.7674 33.9144 70.155 33.333C70.5426 32.9454 70.9302 32.1702 71.5116 32.364C71.7054 32.364 72.4806 33.1392 72.4806 33.333C72.2868 33.7206 72.093 33.9144 71.8992 34.1082C71.5116 34.6896 68.7985 38.178 68.0233 39.3408C66.6667 41.2787 64.3411 44.5733 61.2403 43.6043C60.6589 43.4105 59.4961 43.0229 59.1085 41.6663C58.3333 39.3408 59.1085 36.8214 59.6899 35.4648C61.0465 31.5888 64.9225 21.8989 68.7985 16.2787C68.9923 16.0849 69.3798 15.5035 69.7674 15.3098C70.155 15.116 70.7364 14.7284 71.124 15.3098C71.5116 16.2787 65.3101 27.7129 64.7287 29.0694Z" fill="#F1AF64"/>
<path d="M87.2093 28.1003C87.4031 27.9065 87.4031 29.6507 87.4031 29.8445C87.4031 30.0383 85.2713 31.3949 83.9147 32.1701C82.3644 32.9453 79.6512 33.7205 78.4884 33.7205C77.907 33.7205 77.1318 36.4337 73.8372 37.0151C72.2868 37.2089 70.3488 36.6275 69.9612 34.8833C69.7674 33.9143 70.1551 33.1391 70.5426 32.3639C70.7364 31.9763 70.9302 31.7825 71.3178 31.5887C71.5116 31.3949 72.2868 31.0073 72.2868 30.8135C72.2868 30.6197 72.093 30.0383 72.093 29.6507C72.093 29.2631 72.2868 28.8755 72.4806 28.4879C73.062 27.9065 73.8372 27.3251 74.6124 27.1313C76.1628 26.5499 78.4884 26.3561 79.6512 27.7127C80.814 29.0693 79.6512 31.2011 78.876 32.5577C81.3954 31.9763 85.2713 29.8445 87.2093 28.1003ZM76.7442 33.3329C76.7442 33.1391 76.7442 33.1391 76.7442 33.3329C75.5814 33.1391 74.2248 32.9453 73.062 32.1701C72.4806 33.1391 71.3178 35.4647 72.8682 36.0461C74.4186 36.4337 75.969 34.1081 76.7442 33.3329ZM75.7752 27.9065C73.4496 29.0693 73.062 32.9453 76.3566 32.7515C76.938 32.7515 76.7442 32.7515 77.1318 32.3639C77.3256 32.1701 77.5194 31.7825 77.5194 31.3949C77.7132 30.8135 77.907 30.0383 77.907 29.4569C78.2946 27.7127 77.3256 27.1313 75.7752 27.9065Z" fill="#F1AF64"/>
<path d="M104.07 25.9683C104.07 24.9993 105.039 25.7745 105.039 25.9683C105.233 26.1621 103.295 30.8132 102.713 31.5884C101.55 33.7202 100 35.6582 98.2558 37.0148C96.7055 38.1776 93.9923 38.759 92.4419 37.5962C90.8915 36.2396 91.6667 34.3016 92.2481 32.7512C90.8915 34.3016 89.1473 36.4334 86.6279 36.0458C84.1085 35.6582 85.2713 31.7822 85.8527 30.2318C86.4341 29.069 87.9845 25.9683 89.9225 26.9373C90.6977 27.3249 89.3411 28.4876 88.9535 29.069C88.3721 30.038 87.5969 31.007 87.4031 32.1698C87.4031 32.5574 87.0155 34.1078 87.5969 34.1078C88.1783 34.3016 89.3411 33.1388 89.7287 32.945C91.2791 31.3946 93.0233 29.6504 94.1861 27.7124C94.5737 26.9373 95.3489 25.3869 96.3179 25.5807C97.4806 25.7745 96.3179 27.7124 95.9303 28.4876C94.9613 30.4256 93.4109 32.945 93.6047 35.0768C93.9923 38.1776 97.093 35.4644 98.2558 34.3016C100.581 32.3636 102.907 28.4876 104.07 25.9683Z" fill="#F1AF64"/>
<path d="M117.054 23.8368C117.248 23.643 117.636 23.643 117.636 23.8368C118.023 24.612 117.442 25.7748 116.473 26.9376C115.116 28.6818 112.209 31.7826 110.078 32.7516C108.527 33.5268 105.62 34.1082 104.651 32.1702C103.876 30.426 105.039 28.2942 106.202 26.7438C105.233 26.9376 104.264 26.3562 103.488 25.9686C102.326 25.1934 102.519 23.4492 102.907 22.4803C103.682 20.7361 105.814 17.6353 107.946 16.8601C108.721 16.4725 110.078 16.2787 110.659 16.8601C111.434 17.6353 110.853 19.7671 110.465 20.5423C109.302 22.6741 107.752 24.8058 105.62 25.7748C106.589 26.3562 107.364 24.9996 108.14 24.9996C108.333 24.9996 109.109 24.9996 109.302 25.1934C109.69 25.581 109.302 25.9686 108.915 26.3562C108.333 27.519 107.752 28.6818 107.558 30.0384C107.364 30.6198 107.171 31.395 107.558 31.9764C108.333 32.9454 111.047 30.6198 112.403 29.2632C113.954 27.3252 115.698 25.7748 117.054 23.8368ZM105.039 24.9996C106.202 23.8368 108.721 18.6043 109.496 17.6353C106.395 19.1857 104.651 23.643 105.039 24.9996Z" fill="#F1AF64"/>
<path d="M58.1395 28.1002C57.9457 28.1002 57.3643 27.9064 57.5581 27.1312C57.7519 26.3561 60.2713 26.7436 64.1473 25.3871C66.2791 24.6119 68.6047 24.0305 70.5426 22.8677C70.7364 22.8677 71.124 22.8677 71.124 23.4491C70.9302 24.2243 69.9612 24.9995 68.7984 25.5809C66.8605 26.5498 63.9535 27.9064 61.0465 28.294C60.2713 28.1002 58.7209 28.1002 58.1395 28.1002Z" fill="#F1AF64"/>
</svg>
