<svg width="593" height="274" viewBox="0 0 593 274" fill="none" xmlns="http://www.w3.org/2000/svg">
<path d="M-128.35 166.494C-105.859 71.9873 -65.628 -15.8178 -11.5335 -94.0111C26.8561 -149.503 72.6135 -200.82 125.254 -244.565C279.686 -188.809 414.148 -85.3173 507.408 52.1229C484.917 146.63 444.686 234.435 390.591 312.629C352.202 368.121 306.444 419.437 253.804 463.182C98.3056 407.62 -36.3499 303.061 -128.35 166.494Z" fill="#2B4758"/>
<path d="M128.52 366.161C85.484 309.029 54.5795 244.984 35.6355 177.59C22.1913 129.761 14.5747 79.7156 14.484 29.3215C118.619 -32.0783 240.448 -59.7379 362.184 -48.0911C405.219 9.04039 436.124 73.0859 455.068 140.48C468.512 188.308 476.129 238.354 476.219 288.748C371.694 350.844 249.168 378.112 128.52 366.161Z" fill="#F1AF63"/>
<path d="M242.173 360.607C174.995 343.229 112.851 313.276 57.7637 273.556C18.6696 245.368 -17.3401 211.977 -47.847 173.775C-5.87917 64.2668 69.9002 -30.3155 169.349 -95.002C236.527 -77.6246 298.671 -47.6712 353.758 -7.95164C392.852 20.2364 428.862 53.6279 459.369 91.8294C417.525 202.102 340.98 296.808 242.173 360.607Z" fill="#E5F0F2"/>
</svg>
