<svg width="14" height="14" viewBox="0 0 14 14" fill="none" xmlns="http://www.w3.org/2000/svg">
<path d="M10.7188 14H3.28125C1.47197 14 0 12.528 0 10.7188V3.28125C0 1.47197 1.47197 0 3.28125 0H10.7188C12.528 0 14 1.47197 14 3.28125V10.7188C14 12.528 12.528 14 10.7188 14ZM3.28125 1.09375C2.07506 1.09375 1.09375 2.07506 1.09375 3.28125V10.7188C1.09375 11.9249 2.07506 12.9062 3.28125 12.9062H10.7188C11.9249 12.9062 12.9062 11.9249 12.9062 10.7188V3.28125C12.9062 2.07506 11.9249 1.09375 10.7188 1.09375H3.28125ZM10.8555 2.46094C10.4779 2.46094 10.1719 2.767 10.1719 3.14453C10.1719 3.52207 10.4779 3.82812 10.8555 3.82812C11.233 3.82812 11.5391 3.52207 11.5391 3.14453C11.5391 2.767 11.233 2.46094 10.8555 2.46094ZM7 10.5547C5.03992 10.5547 3.44531 8.96008 3.44531 7C3.64055 2.28421 10.3602 2.28558 10.5547 7.00003C10.5547 8.96008 8.96008 10.5547 7 10.5547ZM7 4.53906C5.64304 4.53906 4.53906 5.64304 4.53906 7C4.67425 10.2648 9.32624 10.2638 9.46094 6.99997C9.46094 5.64304 8.35696 4.53906 7 4.53906Z" fill="#2B4758"/>
</svg>
