<svg width="14" height="9" viewBox="0 0 14 9" fill="none" xmlns="http://www.w3.org/2000/svg">
<path d="M11.6171 4.82318C11.3908 4.52894 11.4555 4.39803 11.6171 4.13501C11.62 4.13201 13.4884 1.47424 13.6809 0.572907L13.6821 0.572307C13.7778 0.243838 13.6821 0.00244141 13.2195 0.00244141H11.6888C11.2992 0.00244141 11.1195 0.20961 11.0233 0.4414C11.0233 0.4414 10.2439 2.36177 9.14142 3.60658C8.78558 3.96628 8.62108 4.08157 8.42683 4.08157C8.33117 4.08157 8.18242 3.96628 8.18242 3.63781V0.572307C8.18242 0.178385 8.07333 0.00244141 7.75075 0.00244141H5.34392C5.0995 0.00244141 4.95425 0.186191 4.95425 0.357331C4.95425 0.730836 5.5055 0.816706 5.56267 1.86756V4.14762C5.56267 4.64723 5.47458 4.73911 5.27917 4.73911C4.75883 4.73911 3.49592 2.81093 2.7475 0.604132C2.59642 0.175983 2.44883 0.00304185 2.05625 0.00304185H0.525C0.0880833 0.00304185 0 0.210211 0 0.442C0 0.851534 0.520333 2.8878 2.41967 5.57799C3.6855 7.41429 5.46817 8.4093 7.08983 8.4093C8.06458 8.4093 8.18358 8.18832 8.18358 7.80821C8.18358 6.05358 8.0955 5.88785 8.58375 5.88785C8.81008 5.88785 9.19975 6.00314 10.1098 6.88886C11.1498 7.93912 11.3208 8.4093 11.9029 8.4093H13.4336C13.8699 8.4093 14.091 8.18832 13.9638 7.75237C13.6728 6.83542 11.7058 4.94928 11.6171 4.82318Z" fill="#2B4758"/>
</svg>
